<svg xmlns="http://www.w3.org/2000/svg" xmlns:xlink="http://www.w3.org/1999/xlink" width="150" zoomAndPan="magnify" viewBox="0 0 375 374.999991" height="250" preserveAspectRatio="xMidYMid meet" version="1.0"><defs><clipPath id="b705d6ef1a"><path d="M 124.089844 0 L 250.839844 0 L 250.839844 375 L 124.089844 375 Z M 124.089844 0 " clip-rule="nonzero"/></clipPath></defs><rect x="-37.5" width="450" fill="#ffffff" y="-37.499999" height="449.999989" fill-opacity="1"/><rect x="-37.5" width="450" fill="#ffffff" y="-37.499999" height="449.999989" fill-opacity="1"/><rect x="-37.5" width="450" fill="#ffffff" y="-37.499999" height="449.999989" fill-opacity="1"/><path fill="#545454" d="M 202.273438 328.125 C 202.273438 328.308594 200.441406 328.859375 197.414062 328.949219 C 195.855469 329.042969 194.113281 328.949219 192.097656 328.675781 C 190.078125 328.398438 187.878906 327.851562 185.679688 327.117188 C 183.476562 326.382812 181.460938 325.371094 179.71875 324.363281 C 177.976562 323.355469 176.507812 322.253906 175.316406 321.246094 C 173.023438 319.226562 171.832031 317.757812 172.015625 317.574219 C 172.199219 317.390625 173.574219 318.585938 176.050781 320.328125 C 177.242188 321.152344 178.800781 322.070312 180.453125 322.988281 C 182.195312 323.90625 184.121094 324.730469 186.226562 325.464844 C 188.335938 326.199219 190.445312 326.65625 192.28125 327.117188 C 194.207031 327.484375 195.945312 327.667969 197.414062 327.757812 C 200.441406 328.035156 202.273438 327.941406 202.273438 328.125 Z M 202.273438 328.125 " fill-opacity="1" fill-rule="nonzero"/><path fill="#545454" d="M 207.132812 312.621094 C 207.132812 312.804688 204.839844 313.355469 201.082031 313.355469 C 200.164062 313.355469 199.066406 313.355469 197.964844 313.265625 C 196.863281 313.171875 195.671875 312.988281 194.386719 312.804688 C 191.914062 312.347656 189.253906 311.703125 186.503906 310.695312 C 183.753906 309.6875 181.277344 308.402344 179.167969 307.117188 C 178.066406 306.476562 177.058594 305.835938 176.234375 305.101562 C 175.316406 304.457031 174.492188 303.816406 173.757812 303.175781 C 170.914062 300.695312 169.449219 298.769531 169.632812 298.679688 C 169.816406 298.496094 171.464844 300.054688 174.492188 302.257812 C 175.226562 302.808594 176.050781 303.355469 176.96875 304 C 177.882812 304.640625 178.894531 305.191406 179.902344 305.742188 C 182.011719 306.933594 184.484375 308.035156 187.054688 309.042969 C 189.710938 309.960938 192.28125 310.695312 194.664062 311.246094 C 195.855469 311.429688 196.957031 311.703125 198.054688 311.796875 C 199.15625 311.980469 200.164062 312.070312 201.082031 312.164062 C 204.75 312.53125 207.042969 312.347656 207.132812 312.621094 Z M 207.132812 312.621094 " fill-opacity="1" fill-rule="nonzero"/><path fill="#545454" d="M 206.398438 299.414062 C 206.398438 299.597656 203.925781 299.78125 199.890625 299.320312 C 197.871094 299.136719 195.488281 298.769531 192.921875 298.21875 C 190.355469 297.671875 187.511719 296.9375 184.578125 295.925781 C 181.644531 294.917969 178.984375 293.816406 176.601562 292.714844 C 174.214844 291.523438 172.109375 290.421875 170.457031 289.414062 C 167.066406 287.304688 165.140625 285.746094 165.230469 285.5625 C 165.507812 285.101562 173.667969 290.699219 185.128906 294.460938 C 196.589844 298.402344 206.492188 298.863281 206.398438 299.414062 Z M 206.398438 299.414062 " fill-opacity="1" fill-rule="nonzero"/><path fill="#545454" d="M 207.957031 288.679688 C 207.957031 288.863281 205.207031 288.773438 200.808594 287.945312 C 196.40625 287.210938 190.445312 285.746094 184.027344 283.453125 C 177.609375 281.160156 172.109375 278.496094 168.257812 276.296875 C 164.40625 274.09375 162.207031 272.445312 162.296875 272.351562 C 162.570312 271.894531 172.015625 277.488281 184.667969 281.984375 C 197.230469 286.480469 208.050781 288.128906 207.957031 288.679688 Z M 207.957031 288.679688 " fill-opacity="1" fill-rule="nonzero"/><path fill="#545454" d="M 205.023438 271.527344 C 205.023438 271.710938 202.183594 271.617188 197.597656 270.792969 C 193.105469 270.058594 186.871094 268.589844 180.175781 266.296875 C 173.484375 264.003906 167.707031 261.34375 163.671875 259.234375 C 159.636719 257.03125 157.253906 255.472656 157.347656 255.289062 C 157.621094 254.832031 167.523438 260.335938 180.726562 264.828125 C 193.839844 269.324219 205.117188 271.066406 205.023438 271.527344 Z M 205.023438 271.527344 " fill-opacity="1" fill-rule="nonzero"/><path fill="#545454" d="M 205.390625 259.050781 C 205.300781 259.234375 202.457031 258.683594 197.871094 257.308594 C 193.289062 256.023438 187.054688 253.914062 180.269531 251.253906 C 173.484375 248.59375 167.523438 245.75 163.304688 243.546875 C 159.089844 241.347656 156.613281 239.789062 156.703125 239.605469 C 156.796875 239.421875 159.546875 240.613281 163.855469 242.539062 C 168.164062 244.464844 174.214844 247.125 180.910156 249.785156 C 187.601562 252.445312 193.746094 254.738281 198.238281 256.300781 C 202.730469 257.859375 205.484375 258.777344 205.390625 259.050781 Z M 205.390625 259.050781 " fill-opacity="1" fill-rule="nonzero"/><path fill="#545454" d="M 184.457031 236.566406 C 185.191406 236.792969 185.921875 237.019531 186.652344 237.246094 C 187.382812 237.472656 188.109375 237.703125 188.828125 237.929688 C 189.546875 238.15625 190.257812 238.382812 190.957031 238.605469 C 191.660156 238.832031 192.347656 239.050781 193.023438 239.269531 C 193.699219 239.488281 194.359375 239.707031 195.003906 239.917969 C 195.644531 240.128906 196.273438 240.335938 196.878906 240.539062 C 197.484375 240.742188 198.070312 240.9375 198.632812 241.128906 C 199.195312 241.320312 199.734375 241.507812 200.246094 241.683594 C 200.761719 241.863281 201.246094 242.035156 201.707031 242.199219 C 202.167969 242.363281 202.597656 242.515625 203 242.664062 C 203.402344 242.8125 203.773438 242.949219 204.113281 243.078125 C 204.449219 243.210938 204.757812 243.328125 205.03125 243.441406 C 205.304688 243.550781 205.542969 243.652344 205.75 243.742188 C 205.957031 243.832031 206.125 243.910156 206.261719 243.980469 C 206.398438 244.050781 206.496094 244.109375 206.5625 244.15625 C 206.625 244.207031 206.652344 244.242188 206.644531 244.269531 C 206.636719 244.292969 206.59375 244.308594 206.515625 244.3125 C 206.433594 244.316406 206.320312 244.308594 206.167969 244.289062 C 206.015625 244.269531 205.832031 244.242188 205.609375 244.199219 C 205.386719 244.160156 205.132812 244.105469 204.84375 244.042969 C 204.554688 243.980469 204.234375 243.90625 203.882812 243.824219 C 203.527344 243.738281 203.144531 243.644531 202.730469 243.542969 C 202.316406 243.4375 201.871094 243.324219 201.398438 243.199219 C 200.925781 243.074219 200.429688 242.941406 199.902344 242.800781 C 199.378906 242.660156 198.828125 242.507812 198.257812 242.351562 C 197.683594 242.191406 197.089844 242.023438 196.472656 241.851562 C 195.859375 241.675781 195.226562 241.496094 194.574219 241.308594 C 193.921875 241.121094 193.253906 240.929688 192.574219 240.730469 C 191.890625 240.53125 191.199219 240.324219 190.492188 240.117188 C 189.789062 239.90625 189.074219 239.695312 188.351562 239.476562 C 187.628906 239.261719 186.902344 239.039062 186.171875 238.816406 C 185.4375 238.59375 184.707031 238.371094 183.96875 238.144531 C 183.234375 237.917969 182.503906 237.691406 181.773438 237.460938 C 181.042969 237.234375 180.316406 237.007812 179.597656 236.777344 C 178.878906 236.550781 178.171875 236.328125 177.46875 236.101562 C 176.769531 235.878906 176.082031 235.65625 175.40625 235.4375 C 174.730469 235.21875 174.070312 235.003906 173.425781 234.789062 C 172.78125 234.578125 172.15625 234.371094 171.546875 234.167969 C 170.941406 233.964844 170.359375 233.769531 169.792969 233.578125 C 169.230469 233.386719 168.695312 233.203125 168.179688 233.023438 C 167.664062 232.84375 167.179688 232.675781 166.71875 232.511719 C 166.257812 232.347656 165.828125 232.191406 165.425781 232.042969 C 165.023438 231.898438 164.65625 231.757812 164.316406 231.628906 C 163.976562 231.5 163.667969 231.378906 163.394531 231.269531 C 163.121094 231.160156 162.882812 231.058594 162.675781 230.96875 C 162.472656 230.875 162.300781 230.796875 162.164062 230.726562 C 162.03125 230.65625 161.929688 230.597656 161.867188 230.550781 C 161.800781 230.503906 161.773438 230.464844 161.78125 230.441406 C 161.789062 230.414062 161.832031 230.398438 161.914062 230.398438 C 161.992188 230.394531 162.109375 230.402344 162.257812 230.417969 C 162.410156 230.4375 162.597656 230.46875 162.816406 230.507812 C 163.039062 230.550781 163.292969 230.601562 163.582031 230.664062 C 163.871094 230.726562 164.191406 230.800781 164.542969 230.886719 C 164.898438 230.96875 165.28125 231.0625 165.695312 231.167969 C 166.113281 231.273438 166.554688 231.386719 167.027344 231.507812 C 167.5 231.632812 168 231.765625 168.523438 231.90625 C 169.046875 232.050781 169.597656 232.199219 170.171875 232.359375 C 170.742188 232.515625 171.335938 232.683594 171.953125 232.855469 C 172.566406 233.03125 173.203125 233.210938 173.851562 233.398438 C 174.503906 233.585938 175.171875 233.78125 175.851562 233.980469 C 176.535156 234.179688 177.230469 234.382812 177.933594 234.59375 C 178.640625 234.800781 179.351562 235.015625 180.074219 235.230469 C 180.796875 235.449219 181.523438 235.667969 182.257812 235.890625 C 182.988281 236.113281 183.722656 236.339844 184.457031 236.566406 Z M 184.457031 236.566406 " fill-opacity="1" fill-rule="nonzero"/><path fill="#545454" d="M 209.609375 230.339844 C 209.515625 230.796875 201.355469 230.15625 191.546875 227.953125 C 181.644531 225.753906 174.035156 222.816406 174.125 222.449219 C 174.308594 221.992188 182.101562 224.191406 191.914062 226.394531 C 201.632812 228.597656 209.699219 229.878906 209.609375 230.339844 Z M 209.609375 230.339844 " fill-opacity="1" fill-rule="nonzero"/><path fill="#545454" d="M 222.539062 217.128906 C 222.539062 217.3125 220.429688 217.3125 217.128906 216.855469 C 213.828125 216.394531 209.332031 215.570312 204.382812 214.285156 C 199.429688 213.09375 195.03125 211.71875 191.914062 210.617188 C 188.796875 209.515625 186.960938 208.507812 187.054688 208.324219 C 187.144531 208.140625 189.070312 208.691406 192.28125 209.515625 C 195.488281 210.339844 199.890625 211.535156 204.75 212.726562 C 209.609375 213.917969 214.101562 215.019531 217.3125 215.753906 C 220.519531 216.488281 222.539062 216.855469 222.539062 217.128906 Z M 222.539062 217.128906 " fill-opacity="1" fill-rule="nonzero"/><path fill="#545454" d="M 226.847656 202.910156 C 226.847656 203.371094 220.335938 203.554688 212.359375 202.359375 C 204.472656 201.261719 198.238281 199.148438 198.332031 198.691406 C 198.421875 198.234375 204.75 199.609375 212.542969 200.710938 C 220.429688 201.902344 226.847656 202.453125 226.847656 202.910156 Z M 226.847656 202.910156 " fill-opacity="1" fill-rule="nonzero"/><path fill="#545454" d="M 238.949219 173.832031 C 238.949219 173.941406 238.855469 174.046875 238.664062 174.148438 C 238.472656 174.25 238.199219 174.339844 237.847656 174.414062 C 237.496094 174.492188 237.089844 174.554688 236.628906 174.59375 C 236.167969 174.636719 235.6875 174.65625 235.191406 174.65625 C 234.691406 174.65625 234.210938 174.636719 233.75 174.59375 C 233.292969 174.554688 232.882812 174.492188 232.53125 174.414062 C 232.179688 174.339844 231.90625 174.25 231.71875 174.148438 C 231.527344 174.046875 231.429688 173.941406 231.429688 173.832031 C 231.429688 173.722656 231.527344 173.617188 231.71875 173.515625 C 231.90625 173.414062 232.179688 173.324219 232.53125 173.25 C 232.882812 173.171875 233.292969 173.109375 233.75 173.070312 C 234.210938 173.027344 234.691406 173.007812 235.191406 173.007812 C 235.6875 173.007812 236.167969 173.027344 236.628906 173.070312 C 237.089844 173.109375 237.496094 173.171875 237.847656 173.25 C 238.199219 173.324219 238.472656 173.414062 238.664062 173.515625 C 238.855469 173.617188 238.949219 173.722656 238.949219 173.832031 Z M 238.949219 173.832031 " fill-opacity="1" fill-rule="nonzero"/><path fill="#545454" d="M 233.90625 187.226562 C 233.90625 187.683594 230.699219 188.140625 226.664062 187.773438 C 222.71875 187.410156 219.601562 186.398438 219.695312 185.941406 C 219.785156 185.480469 222.996094 185.757812 226.847656 186.125 C 230.699219 186.492188 233.90625 186.765625 233.90625 187.226562 Z M 233.90625 187.226562 " fill-opacity="1" fill-rule="nonzero"/><path fill="#545454" d="M 207.867188 194.839844 C 207.957031 194.839844 207.589844 196.03125 206.675781 198.140625 C 205.757812 200.25 204.382812 203.1875 202.550781 206.671875 C 198.789062 213.828125 192.828125 223.183594 185.863281 233.183594 C 178.984375 243.273438 172.566406 252.355469 167.980469 258.867188 C 165.691406 262.167969 163.765625 264.738281 162.390625 266.574219 C 161.011719 268.40625 160.28125 269.324219 160.1875 269.234375 C 160.097656 269.140625 160.738281 268.039062 161.929688 266.207031 C 163.121094 264.28125 164.863281 261.621094 167.066406 258.226562 C 171.464844 251.527344 177.699219 242.355469 184.578125 232.265625 C 191.546875 222.175781 197.597656 213 201.632812 206.121094 C 205.574219 199.242188 207.683594 194.746094 207.867188 194.839844 Z M 207.867188 194.839844 " fill-opacity="1" fill-rule="nonzero"/><path fill="#545454" d="M 232.988281 175.023438 C 233.082031 175.117188 232.347656 176.859375 230.882812 180.070312 C 229.414062 183.28125 227.304688 187.867188 224.554688 193.554688 C 219.144531 204.929688 211.351562 220.433594 202.273438 237.308594 C 193.195312 254.1875 184.578125 269.324219 178.066406 280.058594 C 174.859375 285.46875 172.199219 289.78125 170.273438 292.714844 C 168.347656 295.652344 167.339844 297.304688 167.25 297.210938 C 167.15625 297.121094 168.074219 295.46875 169.722656 292.347656 C 171.464844 289.324219 173.941406 284.828125 177.058594 279.414062 C 183.203125 268.5 191.730469 253.363281 200.808594 236.484375 C 209.882812 219.605469 217.769531 204.195312 223.453125 193.003906 C 226.296875 187.410156 228.589844 182.914062 230.238281 179.703125 C 231.980469 176.675781 232.898438 174.933594 232.988281 175.023438 Z M 232.988281 175.023438 " fill-opacity="1" fill-rule="nonzero"/><path fill="#545454" d="M 208.96875 281.984375 C 209.152344 282.074219 208.324219 285.746094 206.398438 291.617188 C 204.566406 297.488281 201.632812 305.558594 197.871094 314.183594 C 194.113281 322.804688 190.171875 330.417969 187.054688 335.738281 C 184.027344 341.058594 181.828125 344.269531 181.644531 344.179688 C 181.460938 344.085938 183.203125 340.691406 186.042969 335.1875 C 188.796875 329.683594 192.554688 322.070312 196.40625 313.539062 C 200.164062 304.917969 203.28125 297.027344 205.390625 291.25 C 207.410156 285.46875 208.691406 281.890625 208.96875 281.984375 Z M 208.96875 281.984375 " fill-opacity="1" fill-rule="nonzero"/><path fill="#545454" d="M 241.148438 164.382812 C 241.332031 164.382812 240.875 168.144531 239.683594 174.015625 C 238.582031 179.886719 236.839844 188.050781 234.273438 196.855469 C 231.707031 205.664062 228.679688 213.460938 226.480469 219.054688 C 224.1875 224.652344 222.628906 228.046875 222.445312 227.953125 C 222.261719 227.863281 223.363281 224.375 225.378906 218.6875 C 227.304688 213 230.148438 205.203125 232.714844 196.488281 C 235.28125 187.683594 237.117188 179.609375 238.492188 173.832031 C 239.957031 167.960938 240.964844 164.292969 241.148438 164.382812 Z M 241.148438 164.382812 " fill-opacity="1" fill-rule="nonzero"/><path fill="#545454" d="M 172.65625 323.445312 C 172.566406 323.355469 172.839844 322.4375 173.484375 320.878906 C 174.125 319.226562 175.132812 316.933594 176.417969 314.089844 C 178.984375 308.402344 183.109375 300.789062 188.152344 292.714844 C 193.195312 284.644531 197.871094 277.398438 200.988281 272.078125 C 204.199219 266.757812 206.125 263.363281 206.308594 263.546875 C 206.492188 263.636719 204.933594 267.214844 202 272.71875 C 199.066406 278.222656 194.570312 285.652344 189.527344 293.632812 C 184.484375 301.707031 180.269531 309.136719 177.425781 314.640625 C 174.582031 320.050781 172.933594 323.539062 172.65625 323.445312 Z M 172.65625 323.445312 " fill-opacity="1" fill-rule="nonzero"/><path fill="#545454" d="M 148.636719 72.558594 C 148.542969 72.46875 148.636719 72.007812 148.820312 71.277344 C 149.003906 70.449219 149.183594 69.347656 149.003906 67.882812 C 148.910156 67.148438 148.726562 66.414062 148.453125 65.679688 C 148.175781 64.945312 147.71875 64.121094 147.351562 63.019531 C 147.167969 62.46875 147.078125 61.917969 147.078125 61.277344 C 147.078125 60.636719 147.261719 59.992188 147.535156 59.441406 C 148.085938 58.339844 148.820312 57.425781 149.460938 56.507812 C 152.210938 52.835938 155.144531 49.625 157.527344 47.792969 C 160.003906 45.867188 161.746094 45.222656 161.839844 45.40625 C 161.929688 45.589844 160.371094 46.691406 158.261719 48.710938 C 156.0625 50.726562 153.496094 53.9375 150.746094 57.515625 C 150.011719 58.433594 149.367188 59.257812 148.910156 60.085938 C 148.453125 60.910156 148.453125 61.734375 148.636719 62.5625 C 148.910156 63.386719 149.277344 64.304688 149.550781 65.222656 C 149.828125 66.140625 149.917969 67.054688 149.917969 67.789062 C 149.917969 69.441406 149.550781 70.632812 149.183594 71.460938 C 149.09375 72.191406 148.726562 72.558594 148.636719 72.558594 Z M 148.636719 72.558594 " fill-opacity="1" fill-rule="nonzero"/><path fill="#545454" d="M 192.003906 192.820312 C 191.914062 193.003906 188.980469 192.363281 184.578125 190.160156 C 180.175781 187.957031 174.582031 184.015625 169.175781 178.96875 C 163.671875 173.921875 159.089844 169.0625 155.605469 165.757812 C 152.121094 162.367188 149.917969 160.4375 150.011719 160.253906 C 150.101562 160.070312 152.667969 161.722656 156.335938 164.933594 C 160.003906 168.054688 164.773438 172.824219 170.183594 177.777344 C 175.59375 182.730469 180.910156 186.765625 185.035156 189.152344 C 189.253906 191.535156 192.097656 192.636719 192.003906 192.820312 Z M 192.003906 192.820312 " fill-opacity="1" fill-rule="nonzero"/><path fill="#545454" d="M 182.984375 185.945312 C 183.003906 185.964844 182.996094 186.011719 182.960938 186.089844 C 182.925781 186.171875 182.859375 186.277344 182.769531 186.414062 C 182.675781 186.554688 182.554688 186.71875 182.410156 186.914062 C 182.261719 187.109375 182.089844 187.335938 181.886719 187.585938 C 181.6875 187.839844 181.460938 188.117188 181.210938 188.421875 C 180.957031 188.726562 180.679688 189.058594 180.378906 189.414062 C 180.078125 189.769531 179.753906 190.148438 179.40625 190.550781 C 179.058594 190.953125 178.691406 191.378906 178.300781 191.824219 C 177.910156 192.273438 177.5 192.738281 177.074219 193.222656 C 176.644531 193.710938 176.195312 194.210938 175.734375 194.730469 C 175.269531 195.253906 174.789062 195.785156 174.292969 196.335938 C 173.800781 196.886719 173.292969 197.445312 172.773438 198.019531 C 172.25 198.59375 171.71875 199.175781 171.179688 199.769531 C 170.636719 200.359375 170.089844 200.957031 169.53125 201.5625 C 168.976562 202.167969 168.414062 202.777344 167.847656 203.386719 C 167.28125 204 166.710938 204.613281 166.140625 205.226562 C 165.570312 205.839844 164.996094 206.449219 164.425781 207.058594 C 163.855469 207.664062 163.289062 208.269531 162.726562 208.867188 C 162.160156 209.464844 161.601562 210.050781 161.050781 210.632812 C 160.496094 211.214844 159.953125 211.785156 159.417969 212.34375 C 158.882812 212.902344 158.355469 213.449219 157.84375 213.980469 C 157.332031 214.511719 156.832031 215.027344 156.34375 215.527344 C 155.859375 216.027344 155.386719 216.507812 154.933594 216.96875 C 154.480469 217.433594 154.042969 217.875 153.625 218.292969 C 153.207031 218.714844 152.808594 219.113281 152.433594 219.488281 C 152.054688 219.863281 151.699219 220.210938 151.363281 220.535156 C 151.03125 220.863281 150.71875 221.160156 150.433594 221.433594 C 150.144531 221.707031 149.882812 221.953125 149.648438 222.167969 C 149.410156 222.386719 149.199219 222.574219 149.015625 222.734375 C 148.832031 222.894531 148.671875 223.027344 148.542969 223.128906 C 148.410156 223.230469 148.308594 223.300781 148.230469 223.34375 C 148.15625 223.382812 148.109375 223.394531 148.089844 223.378906 C 148.070312 223.359375 148.078125 223.3125 148.113281 223.234375 C 148.148438 223.152344 148.214844 223.046875 148.304688 222.910156 C 148.398438 222.769531 148.519531 222.605469 148.664062 222.410156 C 148.8125 222.214844 148.984375 221.988281 149.1875 221.738281 C 149.386719 221.484375 149.613281 221.207031 149.863281 220.902344 C 150.117188 220.597656 150.394531 220.265625 150.695312 219.910156 C 150.996094 219.554688 151.320312 219.175781 151.667969 218.773438 C 152.011719 218.371094 152.382812 217.945312 152.773438 217.496094 C 153.164062 217.050781 153.570312 216.585938 154 216.101562 C 154.429688 215.613281 154.878906 215.113281 155.339844 214.589844 C 155.804688 214.070312 156.285156 213.539062 156.78125 212.988281 C 157.273438 212.4375 157.78125 211.878906 158.300781 211.304688 C 158.824219 210.730469 159.351562 210.148438 159.894531 209.554688 C 160.4375 208.964844 160.984375 208.367188 161.542969 207.761719 C 162.097656 207.15625 162.660156 206.546875 163.226562 205.9375 C 163.792969 205.324219 164.363281 204.710938 164.933594 204.097656 C 165.503906 203.484375 166.074219 202.875 166.648438 202.265625 C 167.21875 201.660156 167.785156 201.054688 168.347656 200.457031 C 168.914062 199.859375 169.472656 199.273438 170.023438 198.691406 C 170.578125 198.109375 171.121094 197.539062 171.65625 196.980469 C 172.191406 196.421875 172.714844 195.875 173.230469 195.34375 C 173.742188 194.8125 174.242188 194.296875 174.730469 193.796875 C 175.214844 193.296875 175.683594 192.816406 176.140625 192.355469 C 176.59375 191.890625 177.03125 191.449219 177.449219 191.03125 C 177.867188 190.609375 178.265625 190.210938 178.640625 189.835938 C 179.019531 189.460938 179.375 189.113281 179.710938 188.789062 C 180.042969 188.460938 180.355469 188.164062 180.640625 187.890625 C 180.925781 187.617188 181.1875 187.371094 181.425781 187.15625 C 181.664062 186.9375 181.875 186.75 182.058594 186.589844 C 182.242188 186.429688 182.402344 186.296875 182.53125 186.195312 C 182.664062 186.09375 182.765625 186.023438 182.84375 185.980469 C 182.917969 185.9375 182.964844 185.929688 182.984375 185.945312 Z M 182.984375 185.945312 " fill-opacity="1" fill-rule="nonzero"/><path fill="#545454" d="M 168.046875 175.824219 C 168.089844 175.859375 168.054688 175.988281 167.945312 176.207031 C 167.835938 176.425781 167.648438 176.734375 167.390625 177.128906 C 167.132812 177.523438 166.804688 178 166.410156 178.558594 C 166.011719 179.117188 165.554688 179.742188 165.035156 180.441406 C 164.511719 181.136719 163.941406 181.890625 163.320312 182.699219 C 162.695312 183.511719 162.035156 184.363281 161.332031 185.253906 C 160.628906 186.148438 159.902344 187.0625 159.148438 188.003906 C 158.394531 188.941406 157.628906 189.886719 156.851562 190.839844 C 156.074219 191.792969 155.300781 192.730469 154.53125 193.65625 C 153.761719 194.582031 153.007812 195.480469 152.273438 196.34375 C 151.539062 197.210938 150.839844 198.03125 150.167969 198.800781 C 149.5 199.574219 148.875 200.285156 148.296875 200.933594 C 147.71875 201.582031 147.195312 202.15625 146.726562 202.65625 C 146.261719 203.15625 145.859375 203.574219 145.523438 203.90625 C 145.1875 204.238281 144.921875 204.480469 144.730469 204.632812 C 144.539062 204.785156 144.421875 204.84375 144.378906 204.808594 C 144.335938 204.773438 144.371094 204.648438 144.480469 204.429688 C 144.589844 204.210938 144.777344 203.902344 145.035156 203.503906 C 145.292969 203.109375 145.621094 202.632812 146.019531 202.078125 C 146.414062 201.519531 146.875 200.890625 147.394531 200.195312 C 147.914062 199.496094 148.484375 198.746094 149.105469 197.933594 C 149.730469 197.125 150.390625 196.273438 151.09375 195.378906 C 151.796875 194.488281 152.523438 193.570312 153.277344 192.632812 C 154.03125 191.691406 154.796875 190.746094 155.574219 189.796875 C 156.351562 188.84375 157.125 187.90625 157.894531 186.976562 C 158.664062 186.050781 159.417969 185.15625 160.152344 184.289062 C 160.886719 183.421875 161.585938 182.605469 162.257812 181.832031 C 162.925781 181.058594 163.550781 180.347656 164.128906 179.699219 C 164.707031 179.050781 165.230469 178.476562 165.699219 177.976562 C 166.164062 177.476562 166.566406 177.0625 166.902344 176.730469 C 167.238281 176.398438 167.503906 176.15625 167.695312 176.003906 C 167.886719 175.851562 168.003906 175.792969 168.046875 175.824219 Z M 168.046875 175.824219 " fill-opacity="1" fill-rule="nonzero"/><path fill="#545454" d="M 140.015625 186.308594 C 139.648438 186.125 142.21875 180.988281 146.710938 175.484375 C 151.109375 169.980469 155.605469 166.308594 155.878906 166.675781 C 156.246094 167.042969 152.304688 171.171875 147.992188 176.582031 C 143.59375 181.8125 140.382812 186.492188 140.015625 186.308594 Z M 140.015625 186.308594 " fill-opacity="1" fill-rule="nonzero"/><path fill="#545454" d="M 134.789062 168.144531 C 134.332031 168.054688 134.972656 164.292969 137.449219 160.253906 C 139.832031 156.21875 142.859375 153.925781 143.132812 154.292969 C 143.5 154.660156 141.117188 157.320312 138.824219 161.082031 C 136.53125 164.933594 135.25 168.328125 134.789062 168.144531 Z M 134.789062 168.144531 " fill-opacity="1" fill-rule="nonzero"/><path fill="#545454" d="M 154.777344 228.960938 C 154.410156 229.238281 151.84375 226.667969 149.644531 222.632812 C 147.445312 218.6875 146.710938 215.019531 147.078125 214.929688 C 147.535156 214.746094 149.003906 218.046875 151.109375 221.898438 C 153.21875 225.660156 155.144531 228.597656 154.777344 228.960938 Z M 154.777344 228.960938 " fill-opacity="1" fill-rule="nonzero"/><path fill="#545454" d="M 162.113281 220.25 C 161.839844 220.523438 156.519531 215.753906 151.203125 208.78125 C 145.882812 201.808594 142.582031 195.480469 142.949219 195.296875 C 143.316406 195.023438 147.261719 200.894531 152.578125 207.773438 C 157.804688 214.652344 162.480469 219.972656 162.113281 220.25 Z M 162.113281 220.25 " fill-opacity="1" fill-rule="nonzero"/><path fill="#545454" d="M 167.890625 209.425781 C 167.707031 209.605469 165.597656 207.863281 162.390625 204.746094 C 159.179688 201.625 154.960938 197.132812 150.746094 191.8125 C 146.527344 186.492188 143.042969 181.355469 140.75 177.59375 C 138.457031 173.832031 137.265625 171.355469 137.449219 171.171875 C 137.90625 170.898438 143.683594 180.253906 152.027344 190.800781 C 160.464844 201.351562 168.257812 209.058594 167.890625 209.425781 Z M 167.890625 209.425781 " fill-opacity="1" fill-rule="nonzero"/><path fill="#545454" d="M 178.527344 204.101562 C 178.433594 204.195312 177.609375 203.828125 176.050781 203.003906 C 174.492188 202.175781 172.292969 200.800781 169.722656 198.964844 C 164.589844 195.296875 158.171875 189.152344 152.304688 181.539062 C 146.433594 173.921875 141.941406 166.402344 138.824219 160.988281 C 135.707031 155.484375 133.964844 152.089844 134.148438 151.90625 C 134.332031 151.816406 136.441406 155.027344 139.832031 160.347656 C 143.226562 165.667969 147.808594 173.007812 153.585938 180.527344 C 159.453125 188.050781 165.597656 194.105469 170.457031 198.050781 C 175.316406 201.902344 178.617188 203.828125 178.527344 204.101562 Z M 178.527344 204.101562 " fill-opacity="1" fill-rule="nonzero"/><path fill="#545454" d="M 155.238281 248.59375 C 155.144531 248.59375 154.960938 247.859375 154.960938 246.390625 C 154.871094 244.925781 155.054688 242.90625 155.421875 240.246094 C 155.789062 237.675781 156.335938 234.558594 156.980469 231.164062 C 157.164062 230.339844 157.253906 229.421875 157.4375 228.503906 C 157.621094 227.585938 157.710938 226.484375 158.445312 225.476562 C 159.179688 224.46875 160.371094 223.917969 161.472656 223.824219 C 161.746094 223.824219 162.023438 223.734375 162.296875 223.734375 L 163.03125 223.734375 C 163.03125 223.734375 163.121094 223.734375 163.03125 223.734375 L 163.03125 223.550781 C 162.9375 223.09375 162.847656 222.449219 162.9375 221.992188 C 163.121094 220.890625 163.488281 219.972656 164.132812 219.148438 C 164.40625 218.6875 164.773438 218.320312 165.140625 217.953125 C 165.597656 217.589844 165.964844 217.3125 166.421875 217.039062 C 167.25 216.488281 168.164062 216.121094 169.082031 215.753906 C 170.367188 215.203125 171.558594 214.652344 172.476562 213.828125 C 173.390625 213.09375 174.214844 212.085938 175.042969 211.074219 C 175.777344 210.066406 176.601562 208.964844 177.425781 207.957031 C 178.34375 206.945312 179.351562 206.121094 180.542969 205.570312 C 181.734375 205.019531 183.019531 204.835938 184.121094 204.746094 C 185.3125 204.652344 186.320312 204.5625 187.328125 204.378906 C 189.34375 204.101562 190.902344 203.003906 192.097656 201.71875 C 194.570312 199.242188 195.671875 196.488281 196.222656 194.5625 C 196.773438 192.636719 196.773438 191.535156 196.957031 191.535156 C 197.046875 191.535156 197.230469 192.636719 196.863281 194.746094 C 196.496094 196.765625 195.488281 199.699219 192.921875 202.542969 C 192.28125 203.277344 191.546875 203.921875 190.628906 204.46875 C 189.710938 205.019531 188.703125 205.480469 187.601562 205.664062 C 185.402344 206.121094 183.109375 206.03125 181.09375 206.945312 C 180.085938 207.40625 179.257812 208.140625 178.527344 209.058594 C 177.699219 209.972656 177.058594 210.984375 176.234375 212.085938 C 175.410156 213.183594 174.582031 214.285156 173.390625 215.203125 C 172.199219 216.121094 170.914062 216.761719 169.632812 217.3125 C 167.890625 218.136719 166.238281 218.78125 165.324219 220.066406 C 164.863281 220.707031 164.496094 221.441406 164.40625 222.175781 C 164.3125 222.542969 164.3125 222.910156 164.40625 223.183594 L 164.40625 223.277344 C 164.40625 223.367188 164.496094 223.457031 164.589844 223.550781 C 164.773438 223.734375 164.863281 224.007812 165.046875 224.191406 C 165.414062 224.652344 165.78125 225.109375 166.148438 225.570312 C 165.597656 225.476562 165.140625 225.476562 164.589844 225.386719 C 164.039062 225.292969 163.488281 225.292969 163.03125 225.203125 C 162.753906 225.203125 162.664062 225.203125 162.570312 225.203125 L 162.207031 225.203125 C 161.929688 225.203125 161.746094 225.203125 161.5625 225.203125 C 160.648438 225.292969 159.914062 225.660156 159.453125 226.210938 C 158.996094 226.761719 158.8125 227.679688 158.628906 228.503906 C 158.445312 229.421875 158.355469 230.339844 158.171875 231.164062 C 157.4375 234.648438 156.796875 237.675781 156.246094 240.152344 C 155.789062 242.722656 155.511719 244.742188 155.421875 246.117188 C 155.328125 247.859375 155.328125 248.59375 155.238281 248.59375 Z M 155.238281 248.59375 " fill-opacity="1" fill-rule="nonzero"/><path fill="#545454" d="M 147.167969 72.007812 C 146.984375 72.007812 146.433594 69.257812 145.792969 64.671875 C 145.519531 62.378906 145.335938 59.625 145.335938 56.507812 C 145.425781 53.480469 145.792969 49.992188 146.894531 46.601562 C 147.992188 43.207031 149.277344 40.085938 151.019531 37.425781 C 152.667969 34.765625 154.871094 32.839844 156.886719 31.554688 C 158.90625 30.273438 160.832031 29.722656 162.113281 29.628906 C 163.398438 29.445312 164.132812 29.539062 164.132812 29.628906 C 164.132812 29.722656 163.398438 29.90625 162.207031 30.179688 C 161.011719 30.546875 159.269531 31.1875 157.527344 32.472656 C 155.695312 33.757812 153.863281 35.683594 152.304688 38.160156 C 150.746094 40.636719 149.550781 43.757812 148.542969 47.058594 C 147.535156 50.269531 147.078125 53.570312 146.984375 56.507812 C 146.894531 59.535156 146.984375 62.195312 147.078125 64.488281 C 147.261719 69.074219 147.445312 71.917969 147.167969 72.007812 Z M 147.167969 72.007812 " fill-opacity="1" fill-rule="nonzero"/><path fill="#545454" d="M 155.878906 144.292969 C 155.789062 144.292969 156.335938 143.011719 157.804688 141.082031 C 159.269531 139.15625 161.929688 136.679688 165.414062 134.203125 C 168.898438 131.636719 173.207031 128.882812 176.96875 124.664062 C 178.894531 122.554688 180.910156 120.261719 183.386719 118.242188 C 185.863281 116.222656 188.796875 114.664062 191.820312 113.289062 C 194.847656 111.914062 197.871094 110.8125 200.625 109.527344 C 203.464844 108.335938 206.03125 106.867188 208.417969 105.398438 C 213.277344 102.464844 217.402344 99.4375 221.070312 97.050781 C 224.644531 94.667969 227.761719 92.925781 229.964844 91.914062 C 231.0625 91.363281 231.890625 90.996094 232.53125 90.816406 C 233.171875 90.632812 233.449219 90.539062 233.449219 90.539062 C 233.449219 90.632812 233.171875 90.816406 232.621094 91.089844 C 232.074219 91.363281 231.246094 91.824219 230.238281 92.464844 C 228.128906 93.660156 225.195312 95.492188 221.710938 97.96875 C 218.226562 100.445312 214.101562 103.566406 209.242188 106.59375 C 206.765625 108.152344 204.109375 109.621094 201.265625 110.902344 C 198.421875 112.1875 195.398438 113.378906 192.464844 114.664062 C 189.527344 116.039062 186.6875 117.507812 184.394531 119.34375 C 182.011719 121.269531 180.085938 123.472656 178.066406 125.488281 C 177.058594 126.5 176.050781 127.507812 175.042969 128.425781 C 174.035156 129.34375 172.933594 130.167969 171.925781 130.902344 C 169.816406 132.460938 167.890625 133.746094 166.054688 134.9375 C 162.480469 137.324219 159.820312 139.523438 158.261719 141.265625 C 156.703125 143.195312 155.96875 144.386719 155.878906 144.292969 Z M 155.878906 144.292969 " fill-opacity="1" fill-rule="nonzero"/><path fill="#545454" d="M 242.800781 101.457031 C 242.984375 101.640625 241.242188 103.75 238.214844 106.777344 C 235.191406 109.894531 230.605469 113.929688 225.289062 117.785156 C 219.878906 121.726562 214.652344 124.753906 210.800781 126.683594 C 206.949219 128.609375 204.382812 129.617188 204.289062 129.433594 C 204.109375 128.976562 213.734375 124.203125 224.371094 116.5 C 235.007812 108.886719 242.433594 101.179688 242.800781 101.457031 Z M 242.800781 101.457031 " fill-opacity="1" fill-rule="nonzero"/><path fill="#545454" d="M 241.148438 134.480469 C 241.242188 134.480469 240.964844 135.03125 240.507812 136.039062 C 240.140625 137.046875 239.40625 138.421875 239.226562 140.441406 C 239.132812 141.449219 239.316406 142.550781 239.773438 143.558594 C 240.324219 144.660156 241.148438 145.488281 242.527344 145.855469 C 243.167969 146.039062 243.992188 146.21875 244.726562 146.679688 C 245.09375 146.953125 245.460938 147.230469 245.734375 147.6875 C 246.007812 148.148438 246.101562 148.605469 246.191406 149.0625 C 246.285156 149.980469 246.007812 150.992188 245.644531 151.816406 C 245.183594 152.640625 244.726562 153.375 244.265625 154.109375 C 243.351562 155.578125 242.890625 157.410156 242.527344 159.339844 C 242.160156 161.265625 241.792969 163.464844 240.601562 165.394531 C 239.5 167.410156 237.847656 169.0625 236.105469 170.621094 C 234.363281 172.179688 232.441406 173.558594 230.605469 175.023438 C 226.847656 178.050781 222.8125 181.171875 218.6875 184.382812 C 216.578125 185.941406 214.46875 187.589844 212.269531 189.242188 C 211.167969 190.070312 210.066406 190.894531 208.96875 191.71875 C 207.867188 192.546875 206.765625 193.460938 205.484375 194.195312 C 204.199219 194.929688 202.730469 195.480469 201.171875 195.480469 C 199.613281 195.480469 197.964844 194.929688 196.863281 193.644531 C 196.3125 193.003906 196.039062 192.179688 195.855469 191.445312 C 195.671875 190.710938 195.671875 190.070312 195.582031 189.425781 C 195.398438 188.234375 194.753906 187.316406 193.929688 186.492188 C 193.105469 185.664062 192.003906 185.113281 190.902344 184.566406 C 189.804688 184.105469 188.613281 183.738281 187.328125 183.371094 C 186.136719 183.003906 184.851562 182.636719 183.660156 182.085938 C 182.46875 181.539062 181.367188 180.804688 180.453125 179.886719 C 178.617188 177.960938 177.792969 175.667969 176.417969 174.015625 C 175.777344 173.191406 175.042969 172.457031 174.125 172.089844 C 173.207031 171.628906 172.199219 171.539062 171.097656 171.261719 C 170.089844 171.078125 168.898438 170.898438 167.890625 170.347656 C 167.339844 170.070312 166.882812 169.703125 166.515625 169.246094 C 166.148438 168.785156 165.871094 168.234375 165.691406 167.777344 C 165.324219 166.769531 165.140625 165.851562 164.773438 165.027344 C 164.40625 164.199219 163.949219 163.648438 163.214844 163.191406 C 161.839844 162.367188 160.097656 162.273438 158.445312 162.273438 C 156.796875 162.367188 155.238281 162.457031 153.679688 162.273438 C 152.210938 162.089844 150.746094 161.449219 149.828125 160.347656 C 148.910156 159.339844 148.726562 158.054688 148.542969 157.046875 C 148.453125 156.035156 148.359375 155.117188 148.085938 154.382812 C 147.808594 153.652344 147.445312 153.101562 147.167969 152.734375 C 146.433594 152 145.792969 152.089844 145.792969 152 C 145.792969 152 145.976562 151.90625 146.25 152 C 146.527344 152 146.984375 152.183594 147.445312 152.550781 C 147.902344 152.917969 148.359375 153.46875 148.636719 154.203125 C 149.003906 154.933594 149.09375 155.945312 149.277344 156.863281 C 149.460938 157.871094 149.644531 158.972656 150.46875 159.796875 C 151.292969 160.621094 152.488281 161.171875 153.863281 161.265625 C 155.238281 161.449219 156.703125 161.265625 158.445312 161.171875 C 160.097656 161.082031 162.023438 161.082031 163.855469 162.089844 C 164.773438 162.550781 165.507812 163.464844 165.964844 164.382812 C 166.421875 165.300781 166.605469 166.308594 166.972656 167.136719 C 167.339844 167.960938 167.796875 168.601562 168.625 169.0625 C 169.449219 169.429688 170.457031 169.703125 171.464844 169.886719 C 172.476562 170.070312 173.667969 170.253906 174.765625 170.714844 C 175.957031 171.171875 176.875 172.089844 177.609375 173.007812 C 179.078125 174.933594 179.992188 177.132812 181.550781 178.695312 C 183.109375 180.34375 185.402344 181.078125 187.785156 181.8125 C 190.171875 182.546875 192.921875 183.28125 195.03125 185.296875 C 196.128906 186.308594 196.957031 187.683594 197.230469 189.152344 C 197.507812 190.617188 197.507812 191.8125 198.148438 192.636719 C 198.789062 193.460938 199.980469 193.921875 201.171875 193.921875 C 202.367188 193.921875 203.558594 193.460938 204.65625 192.820312 C 205.757812 192.179688 206.859375 191.351562 207.957031 190.527344 C 209.058594 189.703125 210.160156 188.875 211.257812 188.050781 C 213.460938 186.398438 215.570312 184.839844 217.675781 183.1875 C 221.804688 179.976562 225.839844 176.859375 229.6875 173.921875 C 233.449219 170.894531 237.390625 168.328125 239.5 164.84375 C 240.507812 163.097656 240.875 161.082031 241.332031 159.15625 C 241.792969 157.226562 242.25 155.210938 243.351562 153.558594 C 243.902344 152.734375 244.359375 152.089844 244.726562 151.359375 C 245.09375 150.625 245.277344 149.890625 245.277344 149.246094 C 245.277344 148.515625 244.910156 147.964844 244.359375 147.597656 C 243.808594 147.230469 243.074219 147.046875 242.433594 146.863281 C 241.699219 146.679688 240.964844 146.3125 240.417969 145.761719 C 239.867188 145.304688 239.5 144.660156 239.226562 144.019531 C 238.675781 142.828125 238.582031 141.542969 238.765625 140.535156 C 239.042969 138.421875 239.867188 136.957031 240.417969 136.039062 C 240.691406 134.9375 241.058594 134.480469 241.148438 134.480469 Z M 241.148438 134.480469 " fill-opacity="1" fill-rule="nonzero"/><path fill="#545454" d="M 242.160156 128.882812 C 242.25 128.976562 241.515625 129.890625 240.050781 131.636719 C 238.582031 133.285156 236.472656 135.761719 233.722656 138.699219 C 228.3125 144.570312 220.703125 152.640625 211.625 160.804688 C 209.332031 162.824219 207.132812 164.84375 204.839844 166.675781 C 202.640625 168.511719 200.441406 170.347656 197.964844 171.628906 C 196.679688 172.273438 195.398438 172.730469 194.023438 172.824219 C 192.644531 173.007812 191.363281 172.824219 190.171875 172.640625 C 187.785156 172.089844 185.769531 171.261719 183.84375 170.898438 C 179.992188 170.164062 176.785156 170.714844 174.582031 170.988281 C 172.382812 171.261719 171.191406 171.445312 171.097656 171.355469 C 171.097656 171.261719 172.292969 170.898438 174.492188 170.347656 C 175.59375 170.070312 176.96875 169.796875 178.527344 169.703125 C 180.085938 169.519531 182.011719 169.519531 184.027344 169.796875 C 186.042969 170.164062 188.152344 170.898438 190.355469 171.355469 C 191.453125 171.539062 192.554688 171.628906 193.746094 171.445312 C 194.9375 171.261719 196.039062 170.898438 197.140625 170.347656 C 199.339844 169.152344 201.449219 167.410156 203.648438 165.574219 C 205.851562 163.742188 208.050781 161.722656 210.34375 159.707031 C 219.328125 151.542969 227.121094 143.652344 232.714844 137.964844 C 235.558594 135.121094 237.847656 132.828125 239.40625 131.269531 C 241.148438 129.617188 242.066406 128.792969 242.160156 128.882812 Z M 242.160156 128.882812 " fill-opacity="1" fill-rule="nonzero"/><path fill="#545454" d="M 169.175781 166.21875 C 169.175781 166.125 170.183594 165.757812 172.015625 164.933594 C 173.851562 164.199219 176.417969 163.007812 179.351562 161.082031 C 180.820312 160.164062 182.378906 159.0625 184.027344 157.777344 C 185.679688 156.496094 187.328125 155.117188 188.980469 153.46875 C 192.371094 150.257812 195.765625 146.496094 199.246094 142.367188 C 202.730469 138.238281 206.308594 134.296875 210.34375 131.726562 C 212.359375 130.441406 214.46875 129.433594 216.484375 128.792969 C 218.503906 128.148438 220.519531 127.964844 222.355469 127.78125 C 225.929688 127.597656 228.863281 127.964844 230.789062 128.242188 C 232.714844 128.515625 233.816406 128.792969 233.816406 128.882812 C 233.816406 128.976562 232.714844 128.976562 230.699219 128.882812 C 228.679688 128.792969 225.839844 128.609375 222.355469 128.976562 C 220.613281 129.160156 218.777344 129.433594 216.851562 130.074219 C 214.925781 130.71875 213 131.636719 211.074219 132.917969 C 207.316406 135.488281 203.832031 139.25 200.347656 143.375 C 196.863281 147.503906 193.378906 151.359375 189.894531 154.566406 C 188.152344 156.128906 186.410156 157.59375 184.667969 158.789062 C 182.925781 159.980469 181.277344 161.082031 179.71875 162 C 176.601562 163.742188 173.851562 164.84375 172.015625 165.394531 C 170.273438 166.125 169.175781 166.308594 169.175781 166.21875 Z M 169.175781 166.21875 " fill-opacity="1" fill-rule="nonzero"/><path fill="#545454" d="M 151.203125 158.878906 C 151.203125 158.789062 152.210938 158.695312 153.953125 158.695312 C 155.695312 158.605469 158.261719 158.605469 161.195312 158.054688 C 162.664062 157.777344 164.3125 157.320312 165.871094 156.496094 C 167.433594 155.667969 168.992188 154.566406 170.550781 153.285156 C 172.109375 152 173.667969 150.441406 175.316406 148.972656 C 176.96875 147.414062 178.710938 145.855469 180.453125 144.292969 C 182.195312 142.734375 183.9375 141.175781 185.679688 139.617188 C 187.328125 138.148438 188.980469 136.679688 190.722656 135.394531 C 194.023438 132.828125 197.597656 131.085938 200.808594 130.535156 C 204.015625 129.890625 206.675781 130.351562 208.324219 130.992188 C 209.976562 131.636719 210.800781 132.277344 210.710938 132.367188 C 210.617188 132.460938 209.792969 132.003906 208.140625 131.542969 C 206.492188 131.175781 204.015625 130.902344 200.988281 131.636719 C 198.054688 132.277344 194.753906 134.019531 191.546875 136.496094 C 188.335938 138.972656 185.128906 142.183594 181.550781 145.394531 C 179.808594 146.953125 178.066406 148.515625 176.417969 150.074219 C 174.765625 151.542969 173.117188 153.007812 171.558594 154.386719 C 169.90625 155.761719 168.257812 156.863281 166.515625 157.6875 C 164.773438 158.511719 163.03125 158.878906 161.472656 159.15625 C 158.261719 159.613281 155.695312 159.429688 153.953125 159.339844 C 152.121094 159.15625 151.109375 158.972656 151.203125 158.878906 Z M 151.203125 158.878906 " fill-opacity="1" fill-rule="nonzero"/><path fill="#545454" d="M 145.242188 151.082031 C 145.058594 150.714844 153.21875 146.039062 163.398438 140.714844 C 165.964844 139.433594 168.347656 138.054688 170.824219 137.140625 C 172.015625 136.679688 173.300781 136.40625 174.492188 136.3125 C 175.683594 136.222656 176.785156 136.40625 177.792969 136.679688 C 179.71875 137.230469 181 138.515625 181.644531 139.433594 C 182.195312 140.441406 182.195312 141.082031 182.101562 141.082031 C 182.011719 141.082031 181.734375 140.535156 181.09375 139.800781 C 180.453125 139.066406 179.257812 138.148438 177.519531 137.78125 C 175.777344 137.324219 173.667969 137.597656 171.464844 138.515625 C 169.265625 139.433594 166.882812 140.808594 164.222656 142.09375 C 153.863281 147.503906 145.425781 151.449219 145.242188 151.082031 Z M 145.242188 151.082031 " fill-opacity="1" fill-rule="nonzero"/><path fill="#545454" d="M 138.367188 109.894531 C 138.273438 109.710938 139.375 108.886719 141.390625 107.785156 C 143.410156 106.777344 146.25 105.582031 149.644531 104.757812 C 153.035156 103.933594 156.152344 103.65625 158.355469 103.65625 C 160.648438 103.65625 162.023438 103.933594 162.023438 104.117188 C 162.023438 104.574219 156.519531 104.757812 150.101562 106.410156 C 143.5 107.96875 138.550781 110.351562 138.367188 109.894531 Z M 138.367188 109.894531 " fill-opacity="1" fill-rule="nonzero"/><path fill="#545454" d="M 174.035156 96.777344 C 173.851562 96.59375 176.140625 94.023438 179.992188 90.171875 C 183.84375 86.226562 189.4375 81 195.765625 75.496094 C 202.183594 69.992188 208.140625 65.3125 212.632812 62.101562 C 214.835938 60.542969 216.578125 59.167969 217.585938 57.972656 C 218.59375 56.875 219.054688 56.140625 219.144531 56.140625 C 219.234375 56.140625 218.960938 57.058594 218.042969 58.339844 C 217.128906 59.625 215.476562 61.277344 213.367188 62.929688 C 209.152344 66.414062 203.191406 71.183594 196.863281 76.6875 C 190.539062 82.191406 184.851562 87.238281 180.820312 90.90625 C 176.691406 94.667969 174.214844 96.867188 174.035156 96.777344 Z M 174.035156 96.777344 " fill-opacity="1" fill-rule="nonzero"/><path fill="#545454" d="M 139.007812 146.953125 C 138.917969 146.863281 139.558594 145.578125 141.023438 143.46875 C 142.492188 141.265625 144.785156 138.332031 147.71875 134.753906 C 150.652344 131.175781 154.136719 126.863281 158.355469 122.460938 C 162.570312 118.058594 167.707031 113.472656 173.851562 109.710938 C 176.875 107.785156 180.085938 106.410156 183.019531 104.941406 C 185.953125 103.472656 188.519531 101.730469 190.445312 99.4375 C 192.371094 97.234375 194.113281 94.667969 196.589844 93.109375 C 199.15625 91.546875 201.90625 91.457031 204.289062 91.640625 C 206.675781 91.824219 208.691406 92.28125 210.527344 92.648438 C 212.359375 93.015625 213.828125 93.199219 215.109375 93.292969 C 217.675781 93.476562 219.054688 93.015625 219.054688 93.109375 C 219.054688 93.109375 218.777344 93.292969 218.042969 93.476562 C 217.402344 93.660156 216.394531 93.839844 215.019531 93.839844 C 213.734375 93.839844 212.085938 93.75 210.25 93.476562 C 208.417969 93.199219 206.398438 92.832031 204.109375 92.742188 C 201.90625 92.648438 199.339844 92.832031 197.230469 94.207031 C 195.03125 95.585938 193.472656 97.96875 191.453125 100.355469 C 189.34375 102.738281 186.59375 104.667969 183.570312 106.226562 C 180.636719 107.785156 177.425781 109.160156 174.492188 110.996094 C 168.53125 114.574219 163.488281 119.066406 159.269531 123.378906 C 154.960938 127.691406 151.386719 131.910156 148.359375 135.394531 C 145.335938 138.882812 142.859375 141.726562 141.300781 143.742188 C 139.925781 145.855469 139.101562 147.046875 139.007812 146.953125 Z M 139.007812 146.953125 " fill-opacity="1" fill-rule="nonzero"/><path fill="#545454" d="M 231.980469 58.339844 C 232.074219 58.339844 232.257812 59.074219 232.164062 60.542969 C 232.164062 61.917969 231.890625 64.027344 231.15625 66.414062 C 230.421875 68.800781 229.140625 71.644531 227.121094 74.304688 C 226.113281 75.679688 224.921875 76.964844 223.546875 78.15625 C 222.171875 79.347656 220.519531 80.449219 218.871094 81.367188 C 215.476562 83.292969 212.085938 84.578125 208.96875 85.675781 C 205.941406 86.871094 203.191406 87.972656 200.988281 89.070312 C 198.789062 90.171875 197.140625 91.273438 196.039062 92.097656 C 194.9375 92.925781 194.296875 93.382812 194.207031 93.292969 C 194.113281 93.199219 194.570312 92.558594 195.582031 91.546875 C 196.589844 90.539062 198.238281 89.253906 200.441406 88.0625 C 202.640625 86.777344 205.390625 85.585938 208.417969 84.300781 C 211.441406 83.015625 214.835938 81.734375 218.042969 79.898438 C 219.601562 78.980469 221.160156 77.972656 222.445312 76.871094 C 223.730469 75.769531 224.921875 74.484375 225.929688 73.292969 C 227.945312 70.816406 229.230469 68.15625 230.054688 65.957031 C 230.882812 63.660156 231.339844 61.734375 231.523438 60.359375 C 231.796875 59.167969 231.890625 58.339844 231.980469 58.339844 Z M 231.980469 58.339844 " fill-opacity="1" fill-rule="nonzero"/><path fill="#545454" d="M 145.425781 150.898438 C 145.425781 150.992188 144.875 151.082031 143.960938 151.082031 C 143.042969 151.082031 141.667969 150.992188 140.015625 150.257812 C 139.191406 149.890625 138.367188 149.246094 137.816406 148.332031 C 137.175781 147.320312 137.082031 146.128906 136.992188 145.121094 C 136.898438 144.019531 136.808594 143.101562 136.441406 142.09375 C 136.074219 141.082031 135.523438 140.167969 134.789062 139.25 C 134.058594 138.421875 133.140625 137.691406 132.222656 137.230469 C 131.765625 136.957031 131.304688 136.773438 130.757812 136.679688 C 130.296875 136.496094 129.746094 136.40625 129.195312 136.3125 C 128.1875 136.039062 126.996094 135.671875 126.171875 134.753906 C 125.347656 133.835938 125.253906 132.644531 125.347656 131.726562 C 125.53125 130.808594 125.894531 130.074219 126.355469 129.527344 C 126.8125 128.976562 127.273438 128.609375 127.636719 128.332031 C 128.371094 127.78125 128.832031 127.597656 128.921875 127.691406 C 129.015625 127.78125 128.648438 128.148438 128.097656 128.792969 C 127.546875 129.433594 126.628906 130.441406 126.539062 131.910156 C 126.445312 132.644531 126.628906 133.378906 127.179688 133.835938 C 127.730469 134.386719 128.554688 134.664062 129.5625 134.847656 C 130.113281 134.9375 130.574219 135.03125 131.214844 135.210938 C 131.765625 135.394531 132.40625 135.578125 132.957031 135.855469 C 134.058594 136.40625 135.15625 137.230469 136.074219 138.238281 C 136.992188 139.25 137.632812 140.441406 138.089844 141.632812 C 138.550781 142.828125 138.640625 144.109375 138.640625 145.210938 C 138.640625 146.3125 138.734375 147.136719 139.101562 147.871094 C 139.464844 148.605469 140.109375 149.15625 140.660156 149.523438 C 141.941406 150.257812 143.226562 150.53125 144.050781 150.714844 C 144.96875 150.625 145.425781 150.808594 145.425781 150.898438 Z M 145.425781 150.898438 " fill-opacity="1" fill-rule="nonzero"/><path fill="#545454" d="M 132.222656 123.195312 C 132.132812 122.921875 136.074219 122.554688 141.574219 119.617188 C 144.234375 118.152344 147.261719 116.039062 150.46875 113.378906 C 153.585938 110.71875 156.886719 107.601562 160.464844 104.484375 C 164.132812 101.363281 167.796875 98.613281 171.648438 96.777344 C 175.5 94.941406 179.257812 94.023438 182.46875 93.933594 C 185.679688 93.75 188.246094 94.390625 189.894531 95.035156 C 190.722656 95.402344 191.363281 95.675781 191.730469 95.953125 C 192.097656 96.226562 192.371094 96.320312 192.28125 96.410156 C 192.28125 96.5 192.003906 96.410156 191.546875 96.320312 C 191.085938 96.136719 190.445312 95.953125 189.621094 95.769531 C 187.96875 95.308594 185.496094 94.941406 182.46875 95.21875 C 179.441406 95.492188 175.867188 96.5 172.292969 98.246094 C 168.714844 100.078125 165.046875 102.738281 161.472656 105.859375 C 157.894531 108.976562 154.59375 112.097656 151.292969 114.664062 C 148.085938 117.324219 144.875 119.34375 142.035156 120.71875 C 139.191406 122.09375 136.714844 122.828125 134.972656 123.105469 C 133.230469 123.289062 132.222656 123.289062 132.222656 123.195312 Z M 132.222656 123.195312 " fill-opacity="1" fill-rule="nonzero"/><path fill="#545454" d="M 146.433594 105.582031 C 146.34375 105.582031 146.617188 104.300781 147.445312 102.1875 C 148.269531 100.078125 149.644531 97.050781 151.84375 93.660156 C 154.046875 90.265625 157.070312 86.410156 160.832031 82.558594 C 164.589844 78.707031 169.082031 74.851562 173.851562 71 C 178.710938 67.238281 183.292969 63.570312 187.96875 60.816406 C 190.261719 59.441406 192.644531 58.339844 194.9375 57.515625 C 197.230469 56.691406 199.429688 56.230469 201.539062 56.046875 C 205.667969 55.679688 208.96875 56.414062 211.167969 57.242188 C 213.277344 58.15625 214.285156 58.984375 214.195312 59.074219 C 214.101562 59.167969 213 58.523438 210.894531 57.882812 C 208.785156 57.242188 205.574219 56.691406 201.632812 57.242188 C 199.707031 57.515625 197.597656 57.972656 195.398438 58.800781 C 193.195312 59.625 190.996094 60.726562 188.796875 62.101562 C 184.300781 64.855469 179.71875 68.523438 174.859375 72.285156 C 170.089844 76.136719 165.597656 79.898438 161.839844 83.566406 C 158.078125 87.328125 155.054688 90.90625 152.761719 94.207031 C 150.46875 97.511719 149.003906 100.355469 147.992188 102.371094 C 147.078125 104.484375 146.527344 105.582031 146.433594 105.582031 Z M 146.433594 105.582031 " fill-opacity="1" fill-rule="nonzero"/><path fill="#545454" d="M 143.316406 13.484375 C 143.316406 13.484375 143.5 13.027344 144.144531 12.382812 C 144.417969 12.015625 144.875 11.648438 145.335938 11.191406 C 145.882812 10.734375 146.433594 10.273438 147.167969 9.816406 C 148.542969 8.804688 150.46875 7.890625 152.851562 7.246094 C 155.238281 6.605469 157.988281 6.328125 161.105469 6.695312 C 163.949219 7.0625 167.25 8.164062 170.273438 10.183594 C 173.300781 12.199219 176.140625 14.953125 178.34375 18.347656 C 180.636719 21.742188 182.285156 25.777344 183.292969 29.996094 C 184.300781 34.308594 184.667969 38.894531 184.578125 43.480469 C 184.484375 45.773438 184.394531 48.066406 184.121094 50.359375 C 183.9375 51.460938 183.660156 52.652344 183.203125 53.753906 C 182.742188 54.855469 182.101562 55.957031 181.183594 56.691406 C 179.351562 58.339844 177.152344 58.890625 175.316406 59.71875 C 173.390625 60.453125 171.558594 61.277344 169.722656 62.101562 C 162.570312 65.496094 156.613281 69.347656 151.9375 73.109375 C 147.167969 76.78125 143.777344 80.171875 141.390625 82.558594 C 140.839844 83.199219 140.292969 83.660156 139.832031 84.210938 C 139.375 84.667969 139.007812 85.128906 138.734375 85.402344 C 138.089844 86.042969 137.816406 86.410156 137.722656 86.320312 C 137.632812 86.226562 137.90625 85.859375 138.457031 85.21875 C 138.734375 84.851562 139.101562 84.394531 139.464844 83.933594 C 139.925781 83.476562 140.382812 82.832031 140.933594 82.191406 C 143.132812 79.625 146.527344 76.046875 151.203125 72.191406 C 155.878906 68.339844 161.839844 64.210938 169.082031 60.726562 C 170.914062 59.808594 172.75 58.984375 174.675781 58.25 C 176.601562 57.425781 178.617188 56.78125 180.085938 55.496094 C 181.550781 54.214844 182.195312 52.195312 182.46875 50.085938 C 182.742188 47.976562 182.835938 45.683594 182.925781 43.390625 C 183.019531 38.894531 182.652344 34.398438 181.734375 30.273438 C 180.820312 26.144531 179.167969 22.289062 177.058594 19.082031 C 174.949219 15.871094 172.292969 13.117188 169.449219 11.191406 C 166.605469 9.265625 163.582031 8.074219 160.648438 7.613281 C 157.710938 7.15625 155.054688 7.339844 152.761719 7.890625 C 150.46875 8.4375 148.636719 9.265625 147.167969 10.089844 C 144.507812 12.015625 143.410156 13.578125 143.316406 13.484375 Z M 143.316406 13.484375 " fill-opacity="1" fill-rule="nonzero"/><path fill="#545454" d="M 140.015625 64.210938 C 139.925781 64.210938 139.464844 62.652344 139.007812 59.808594 C 138.550781 56.875 138.089844 52.652344 138.367188 47.425781 C 138.457031 44.765625 138.824219 41.921875 139.375 38.894531 C 139.925781 35.867188 140.75 32.566406 142.21875 29.355469 C 143.683594 26.144531 145.882812 22.933594 149.277344 20.824219 C 151.019531 19.8125 152.945312 19.082031 154.960938 18.898438 C 156.980469 18.621094 159.179688 18.804688 161.105469 19.628906 C 163.121094 20.363281 164.863281 21.925781 165.964844 23.667969 C 167.066406 25.5 167.523438 27.519531 167.613281 29.539062 C 167.796875 33.480469 166.699219 37.058594 165.691406 40.363281 C 163.582031 47.058594 160.832031 52.652344 158.355469 57.242188 C 155.878906 61.828125 153.585938 65.40625 152.027344 67.882812 C 150.46875 70.359375 149.550781 71.644531 149.460938 71.644531 C 149.367188 71.550781 150.101562 70.175781 151.476562 67.605469 C 152.851562 65.039062 154.960938 61.367188 157.347656 56.78125 C 159.636719 52.195312 162.296875 46.507812 164.3125 39.996094 C 165.230469 36.691406 166.238281 33.207031 166.054688 29.628906 C 165.964844 27.886719 165.597656 26.050781 164.679688 24.585938 C 163.765625 23.117188 162.390625 21.832031 160.648438 21.191406 C 157.253906 19.8125 153.21875 20.546875 150.195312 22.289062 C 147.167969 24.125 145.058594 27.0625 143.683594 30.089844 C 142.21875 33.113281 141.390625 36.234375 140.839844 39.261719 C 140.199219 42.195312 139.925781 45.039062 139.648438 47.609375 C 139.191406 52.652344 139.375 56.78125 139.648438 59.71875 C 139.925781 62.5625 140.199219 64.210938 140.015625 64.210938 Z M 140.015625 64.210938 " fill-opacity="1" fill-rule="nonzero"/><g clip-path="url(#b705d6ef1a)"><path fill="#545454" d="M 131.949219 124.296875 C 131.949219 124.296875 131.855469 124.480469 131.582031 124.753906 C 131.304688 125.03125 130.9375 125.488281 130.480469 126.039062 C 129.5625 127.230469 128.28125 128.976562 126.90625 131.453125 C 126.539062 132.09375 126.261719 132.734375 125.894531 133.46875 C 125.53125 134.203125 125.253906 134.9375 124.980469 135.855469 C 124.796875 136.679688 124.613281 137.597656 124.886719 138.421875 C 125.070312 138.789062 125.253906 139.15625 125.714844 139.433594 C 126.261719 139.800781 126.445312 140.351562 126.628906 140.808594 C 127.457031 142.734375 128.1875 144.9375 128.921875 147.230469 C 129.65625 149.523438 130.390625 152 131.121094 154.660156 C 137.175781 175.574219 144.785156 206.214844 154.320312 244.007812 C 159.089844 262.902344 164.222656 283.636719 169.722656 305.835938 C 172.566406 316.933594 175.410156 328.398438 178.527344 340.234375 C 180.085938 346.105469 181.644531 352.066406 183.386719 358.121094 C 184.210938 361.148438 185.128906 364.175781 186.042969 367.203125 C 186.503906 368.671875 187.054688 370.230469 187.601562 371.699219 C 187.785156 372.066406 187.878906 372.429688 188.0625 372.796875 C 188.152344 372.980469 188.246094 373.164062 188.335938 373.257812 C 188.335938 373.347656 188.429688 373.441406 188.429688 373.441406 C 188.335938 373.441406 188.886719 373.53125 189.164062 373.53125 C 189.527344 373.53125 189.894531 373.53125 190.261719 373.53125 C 190.996094 373.53125 191.636719 373.347656 192.097656 372.980469 C 192.554688 372.613281 192.921875 372.066406 193.289062 371.332031 C 193.839844 369.953125 194.570312 368.304688 194.9375 366.835938 C 195.398438 365.367188 195.765625 363.71875 196.128906 362.15625 C 196.496094 360.597656 196.957031 358.945312 197.324219 357.386719 C 198.882812 350.964844 200.441406 344.546875 202.089844 337.941406 C 205.300781 324.824219 208.507812 311.429688 211.808594 297.851562 C 218.320312 270.609375 225.105469 242.355469 232.074219 213.460938 C 235.558594 198.964844 238.949219 184.746094 242.34375 170.621094 C 243.992188 163.558594 245.734375 156.585938 247.386719 149.707031 C 247.84375 147.964844 248.210938 146.21875 248.667969 144.570312 L 248.851562 143.925781 C 248.851562 143.742188 248.945312 143.558594 248.945312 143.375 C 249.035156 143.011719 249.035156 142.550781 249.035156 142.09375 C 249.035156 141.265625 249.035156 140.441406 248.851562 139.617188 C 248.761719 138.789062 248.394531 138.054688 248.117188 137.324219 C 247.933594 137.046875 247.75 136.679688 247.476562 136.40625 L 247.109375 135.945312 C 246.925781 135.855469 246.835938 135.671875 246.652344 135.578125 C 246.375 135.304688 246.007812 135.210938 245.644531 135.03125 C 245.277344 134.847656 244.910156 134.753906 244.542969 134.664062 C 244.175781 134.480469 243.71875 134.480469 243.351562 134.480469 L 242.707031 134.386719 C 242.433594 134.386719 242.066406 134.386719 241.699219 134.113281 C 241.332031 133.929688 241.058594 133.46875 240.964844 133.101562 C 240.875 132.734375 240.875 132.460938 240.964844 132.1875 C 241.058594 131.636719 241.148438 131.175781 241.332031 130.71875 C 241.515625 130.351562 241.242188 129.890625 240.875 129.890625 C 240.050781 129.800781 239.132812 129.800781 238.308594 129.707031 L 236.839844 129.707031 C 236.382812 129.707031 236.015625 129.707031 235.464844 129.800781 C 235.191406 129.890625 235.007812 129.800781 234.824219 129.800781 C 234.640625 129.800781 234.546875 129.707031 234.457031 129.707031 C 234.273438 129.617188 234.273438 129.527344 234.273438 129.433594 C 234.183594 129.25 234.183594 129.160156 234.183594 128.976562 C 234.183594 128.792969 234.273438 128.515625 234.546875 128.332031 C 234.824219 128.058594 235.097656 127.78125 235.464844 127.507812 L 237.757812 125.488281 C 239.042969 124.386719 240.234375 123.195312 241.425781 121.910156 C 242.617188 120.71875 243.625 119.433594 244.632812 118.058594 C 245.550781 116.683594 246.285156 115.214844 246.558594 113.746094 C 246.652344 113.015625 246.652344 112.28125 246.375 111.546875 L 246.007812 110.445312 C 245.828125 110.078125 245.734375 109.710938 245.550781 109.34375 C 245.183594 108.609375 244.726562 108.058594 244.269531 107.417969 C 243.992188 107.144531 243.71875 106.867188 243.351562 106.5 C 242.984375 106.132812 242.707031 105.675781 242.527344 105.125 C 242.25 104.023438 242.433594 103.105469 242.617188 102.28125 C 242.707031 101.824219 242.800781 101.457031 242.890625 100.996094 C 242.984375 100.539062 243.074219 100.171875 243.167969 99.804688 C 243.441406 98.335938 243.074219 96.960938 241.976562 95.953125 C 240.96875 94.851562 239.5 94.117188 238.03125 93.476562 C 237.300781 93.109375 236.566406 92.832031 235.742188 92.375 C 235.558594 92.28125 235.375 92.097656 235.097656 91.914062 C 234.824219 91.640625 234.640625 91.273438 234.640625 90.90625 C 234.640625 90.539062 234.824219 90.082031 234.914062 89.898438 C 235.007812 89.714844 235.191406 89.53125 235.28125 89.347656 C 236.382812 87.972656 237.484375 86.777344 238.492188 85.496094 C 239.5 84.210938 240.417969 82.925781 241.242188 81.550781 C 241.976562 80.171875 242.527344 78.707031 242.617188 77.328125 C 242.617188 76.597656 242.527344 75.953125 242.25 75.21875 C 241.976562 74.578125 241.515625 73.9375 241.148438 73.292969 C 240.691406 72.652344 240.234375 72.101562 239.683594 71.644531 C 239.132812 71.183594 238.492188 70.816406 237.757812 70.359375 C 237.023438 69.898438 236.382812 69.164062 235.925781 68.339844 C 235.648438 67.972656 235.558594 67.605469 235.375 67.148438 L 234.914062 65.957031 C 234.457031 64.394531 234.089844 62.835938 233.816406 61.277344 L 233.632812 60.085938 C 233.539062 59.71875 233.449219 59.441406 233.355469 59.167969 C 233.082031 58.617188 232.714844 58.25 232.074219 58.066406 C 230.882812 57.699219 229.320312 58.066406 227.855469 58.339844 C 227.121094 58.523438 226.296875 58.707031 225.5625 58.800781 C 224.738281 58.890625 223.914062 59.074219 222.902344 58.800781 C 222.445312 58.707031 221.894531 58.339844 221.621094 57.792969 C 221.527344 57.699219 221.527344 57.515625 221.4375 57.425781 C 221.4375 57.425781 221.4375 57.425781 221.4375 57.332031 C 221.34375 57.242188 221.160156 57.058594 221.070312 56.964844 C 220.519531 56.507812 219.96875 56.046875 219.417969 55.679688 C 218.777344 55.3125 218.226562 55.132812 217.675781 55.132812 C 217.496094 55.132812 217.3125 55.132812 217.21875 55.132812 C 217.035156 55.132812 216.851562 55.039062 216.761719 54.949219 C 216.484375 54.765625 216.300781 54.398438 216.210938 54.121094 C 216.027344 53.664062 215.9375 53.296875 215.84375 52.929688 C 215.109375 49.902344 214.46875 46.964844 213.550781 44.125 C 212.726562 41.28125 211.71875 38.527344 210.527344 35.777344 C 208.140625 30.453125 205.023438 25.5 201.449219 21.191406 C 197.78125 16.878906 193.5625 13.117188 189.070312 10.089844 C 184.484375 7.0625 179.808594 4.402344 174.765625 2.84375 C 172.292969 2.019531 169.722656 1.558594 167.15625 1.46875 C 164.589844 1.285156 162.113281 1.558594 159.730469 2.292969 C 154.960938 3.667969 150.835938 6.605469 147.71875 10.183594 C 144.507812 13.761719 142.125 17.886719 140.292969 22.105469 C 139.375 24.21875 138.550781 26.328125 137.90625 28.4375 C 137.632812 29.539062 137.265625 30.546875 137.082031 31.648438 C 136.898438 32.65625 136.898438 33.757812 136.898438 34.859375 C 136.808594 39.167969 136.992188 43.480469 137.359375 47.609375 C 137.722656 51.738281 138.183594 55.679688 139.007812 59.441406 C 139.375 61.367188 139.832031 63.113281 140.382812 64.945312 C 140.660156 65.863281 141.023438 66.597656 141.390625 67.515625 C 141.757812 68.433594 141.941406 69.347656 141.851562 70.359375 C 141.757812 71.367188 141.300781 72.191406 141.390625 72.835938 C 141.484375 73.570312 141.941406 74.304688 142.492188 74.945312 C 142.765625 75.21875 143.042969 75.585938 143.316406 75.863281 L 143.777344 76.320312 C 143.960938 76.503906 144.144531 76.6875 144.234375 76.871094 C 144.507812 77.328125 144.507812 77.972656 144.417969 78.429688 C 144.324219 78.890625 144.050781 79.257812 143.867188 79.625 C 142.949219 81.089844 141.851562 82.285156 141.023438 83.566406 C 140.199219 84.851562 139.648438 86.320312 139.558594 87.695312 C 139.28125 90.816406 138.640625 93.566406 138.183594 96.226562 C 137.722656 98.886719 137.359375 101.457031 137.265625 103.839844 C 137.265625 105.03125 137.265625 106.226562 137.632812 107.234375 C 137.816406 107.785156 138.089844 108.152344 138.457031 108.519531 C 138.734375 108.792969 139.007812 108.976562 139.101562 109.253906 C 139.28125 109.527344 139.101562 109.894531 138.824219 110.078125 C 138.550781 110.261719 138.183594 110.351562 137.90625 110.351562 C 137.632812 110.445312 137.359375 110.445312 137.082031 110.445312 C 136.625 110.535156 136.074219 110.535156 135.617188 110.628906 C 134.699219 110.71875 133.78125 110.996094 133.046875 111.363281 C 132.679688 111.546875 132.40625 111.914062 132.316406 112.28125 C 132.132812 112.648438 132.132812 113.015625 132.222656 113.378906 C 132.222656 114.207031 132.316406 114.941406 132.40625 115.675781 C 132.773438 118.519531 133.230469 120.628906 133.140625 122.1875 C 133.140625 122.921875 132.957031 123.472656 132.773438 123.839844 C 132.039062 124.203125 131.949219 124.296875 131.949219 124.296875 C 131.949219 124.296875 132.039062 124.113281 132.222656 123.839844 C 132.40625 123.472656 132.5 122.921875 132.5 122.1875 C 132.5 120.71875 132.039062 118.609375 131.582031 115.765625 C 131.488281 115.03125 131.398438 114.296875 131.398438 113.472656 C 131.398438 113.105469 131.398438 112.648438 131.582031 112.1875 C 131.765625 111.730469 132.039062 111.363281 132.5 111.085938 C 133.324219 110.535156 134.238281 110.351562 135.25 110.171875 C 135.707031 110.078125 136.257812 110.078125 136.714844 109.988281 C 136.992188 109.988281 137.265625 109.894531 137.449219 109.894531 C 137.632812 109.894531 137.816406 109.804688 138 109.710938 C 138.183594 109.621094 138.273438 109.4375 138.089844 109.253906 C 138 109.070312 137.816406 108.976562 137.722656 108.792969 C 137.265625 108.425781 136.992188 107.875 136.808594 107.328125 C 136.441406 106.226562 136.347656 105.03125 136.347656 103.75 C 136.347656 101.273438 136.714844 98.703125 137.175781 96.042969 C 137.632812 93.382812 138.183594 90.539062 138.457031 87.511719 C 138.457031 85.953125 139.101562 84.394531 140.015625 83.015625 C 140.839844 81.640625 141.941406 80.355469 142.765625 79.074219 C 143.226562 78.429688 143.5 77.605469 143.132812 77.148438 C 143.042969 76.964844 142.949219 76.871094 142.765625 76.78125 L 142.308594 76.320312 C 142.035156 76.046875 141.667969 75.679688 141.390625 75.3125 C 140.839844 74.578125 140.199219 73.84375 140.109375 72.835938 C 140.015625 72.285156 140.109375 71.824219 140.292969 71.367188 C 140.382812 70.910156 140.566406 70.542969 140.566406 70.082031 C 140.660156 69.257812 140.476562 68.433594 140.109375 67.605469 C 139.832031 66.78125 139.375 65.863281 139.101562 65.039062 C 138.550781 63.203125 138 61.367188 137.632812 59.441406 C 136.808594 55.589844 136.347656 51.644531 135.890625 47.515625 C 135.523438 43.390625 135.25 39.078125 135.339844 34.675781 C 135.339844 33.574219 135.433594 32.472656 135.523438 31.28125 C 135.707031 30.089844 135.980469 29.078125 136.347656 27.976562 C 136.992188 25.777344 137.816406 23.667969 138.734375 21.464844 C 140.660156 17.152344 143.042969 13.027344 146.34375 9.265625 C 149.550781 5.59375 153.863281 2.386719 158.90625 1.007812 C 161.378906 0.273438 164.039062 0 166.699219 0.0898438 C 169.355469 0.367188 172.015625 0.824219 174.582031 1.742188 C 179.808594 3.300781 184.578125 6.054688 189.253906 9.082031 C 193.839844 12.199219 198.238281 15.960938 201.90625 20.363281 C 205.667969 24.769531 208.875 29.8125 211.257812 35.316406 C 212.453125 38.070312 213.550781 40.914062 214.375 43.757812 C 215.292969 46.601562 215.933594 49.628906 216.667969 52.5625 C 216.761719 52.929688 216.851562 53.296875 217.035156 53.570312 C 217.128906 53.664062 217.035156 53.664062 217.21875 53.664062 C 218.226562 53.570312 219.054688 53.9375 219.785156 54.398438 C 220.519531 54.855469 221.160156 55.3125 221.710938 55.957031 C 221.894531 56.140625 221.988281 56.230469 222.171875 56.414062 L 222.355469 56.597656 C 222.445312 56.691406 222.445312 56.78125 222.445312 56.875 C 222.539062 56.964844 222.539062 56.964844 222.539062 57.058594 C 222.628906 57.242188 222.8125 57.332031 222.996094 57.425781 C 223.546875 57.609375 224.277344 57.515625 224.921875 57.332031 C 225.65625 57.242188 226.386719 57.058594 227.121094 56.875 C 227.855469 56.691406 228.679688 56.507812 229.503906 56.414062 C 230.332031 56.324219 231.246094 56.324219 232.164062 56.597656 C 233.082031 56.875 233.90625 57.609375 234.273438 58.523438 C 234.457031 58.984375 234.640625 59.351562 234.730469 59.808594 L 234.914062 61 C 235.191406 62.5625 235.558594 64.027344 236.015625 65.496094 C 236.472656 66.964844 237.117188 68.339844 238.308594 69.074219 C 238.859375 69.441406 239.683594 69.898438 240.324219 70.449219 C 241.058594 71 241.609375 71.644531 242.066406 72.375 C 242.527344 73.109375 242.984375 73.753906 243.351562 74.667969 C 243.71875 75.496094 243.808594 76.414062 243.808594 77.328125 C 243.71875 79.164062 243.074219 80.816406 242.25 82.285156 C 241.425781 83.75 240.417969 85.128906 239.40625 86.410156 C 238.398438 87.695312 237.207031 88.980469 236.289062 90.171875 C 236.199219 90.355469 236.105469 90.449219 236.015625 90.632812 C 235.921875 90.816406 235.921875 90.722656 235.921875 90.816406 C 236.015625 90.816406 236.105469 90.996094 236.289062 91.089844 C 236.933594 91.457031 237.664062 91.730469 238.492188 92.097656 C 240.050781 92.832031 241.609375 93.566406 242.890625 94.851562 C 243.535156 95.492188 244.085938 96.320312 244.359375 97.234375 C 244.632812 98.152344 244.632812 99.164062 244.449219 100.078125 C 244.359375 100.539062 244.265625 100.996094 244.175781 101.363281 C 244.085938 101.730469 243.992188 102.1875 243.902344 102.554688 C 243.71875 103.289062 243.625 104.117188 243.808594 104.667969 C 243.902344 104.941406 244.085938 105.125 244.265625 105.398438 C 244.542969 105.675781 244.816406 105.949219 245.183594 106.316406 C 245.828125 106.960938 246.375 107.785156 246.742188 108.519531 C 246.925781 108.886719 247.109375 109.34375 247.292969 109.710938 C 247.476562 110.171875 247.570312 110.535156 247.75 110.996094 C 248.027344 111.914062 248.117188 112.921875 248.027344 113.839844 C 247.75 115.765625 246.835938 117.324219 245.917969 118.792969 C 244.910156 120.261719 243.808594 121.636719 242.617188 122.921875 C 241.425781 124.203125 240.140625 125.398438 238.859375 126.589844 L 237.207031 128.058594 C 237.207031 128.058594 237.117188 128.058594 237.207031 128.058594 L 238.398438 128.058594 C 239.316406 128.058594 240.140625 128.148438 241.058594 128.242188 C 241.699219 128.242188 242.433594 128.699219 242.707031 129.34375 C 243.074219 129.890625 243.074219 130.71875 242.800781 131.269531 C 242.617188 131.636719 242.527344 132.003906 242.527344 132.371094 C 242.527344 132.550781 242.527344 132.644531 242.527344 132.734375 C 242.527344 132.828125 242.527344 132.734375 242.527344 132.734375 C 242.527344 132.734375 242.617188 132.734375 242.800781 132.734375 L 243.535156 132.828125 C 243.992188 132.917969 244.449219 132.917969 244.910156 133.101562 C 245.367188 133.285156 245.828125 133.285156 246.285156 133.5625 C 246.742188 133.746094 247.203125 134.019531 247.566406 134.296875 C 247.75 134.480469 247.933594 134.570312 248.117188 134.753906 L 248.578125 135.304688 C 248.945312 135.671875 249.128906 136.128906 249.402344 136.496094 C 249.859375 137.324219 250.226562 138.332031 250.320312 139.25 C 250.503906 140.167969 250.59375 141.082031 250.503906 142.09375 C 250.503906 142.550781 250.503906 143.011719 250.410156 143.46875 C 250.410156 143.742188 250.320312 143.925781 250.320312 144.203125 L 250.136719 144.84375 C 249.675781 146.585938 249.308594 148.332031 248.851562 150.074219 C 247.203125 157.046875 245.550781 164.015625 243.808594 170.988281 C 240.417969 185.023438 237.023438 199.332031 233.539062 213.828125 C 226.570312 242.722656 219.785156 270.976562 213.277344 298.21875 C 209.976562 311.796875 206.675781 325.191406 203.558594 338.308594 C 201.90625 344.820312 200.347656 351.332031 198.789062 357.753906 C 198.421875 359.3125 197.964844 360.964844 197.597656 362.523438 C 197.230469 364.082031 196.773438 365.644531 196.3125 367.292969 C 196.039062 368.121094 195.855469 368.945312 195.582031 369.679688 C 195.304688 370.414062 195.03125 371.148438 194.664062 371.972656 C 194.296875 372.707031 193.839844 373.625 193.011719 374.175781 C 192.1875 374.726562 191.179688 375 190.355469 375 C 189.894531 375 189.527344 375 189.070312 375 L 188.429688 374.910156 L 187.96875 374.910156 C 187.878906 374.910156 187.785156 374.910156 187.695312 374.816406 C 187.601562 374.816406 187.511719 374.726562 187.421875 374.726562 C 187.238281 374.632812 187.144531 374.449219 187.054688 374.359375 C 186.960938 374.265625 186.960938 374.175781 186.871094 374.082031 C 186.777344 373.898438 186.6875 373.714844 186.59375 373.53125 C 186.410156 373.164062 186.226562 372.796875 186.136719 372.339844 C 185.585938 370.78125 185.035156 369.3125 184.578125 367.753906 C 183.660156 364.726562 182.742188 361.699219 181.917969 358.671875 C 180.175781 352.617188 178.617188 346.65625 177.058594 340.691406 C 173.941406 328.859375 171.097656 317.390625 168.347656 306.292969 C 162.847656 284.09375 157.710938 263.363281 153.128906 244.464844 C 143.960938 206.398438 136.441406 175.757812 130.664062 154.75 C 129.929688 152.089844 129.195312 149.707031 128.554688 147.320312 C 127.820312 145.027344 127.179688 142.828125 126.355469 140.992188 C 126.171875 140.535156 125.894531 139.984375 125.621094 139.800781 C 125.164062 139.523438 124.796875 139.066406 124.613281 138.515625 C 124.335938 137.507812 124.519531 136.496094 124.703125 135.671875 C 124.980469 134.847656 125.253906 134.019531 125.621094 133.285156 C 125.988281 132.550781 126.261719 131.820312 126.628906 131.269531 C 128.003906 128.792969 129.378906 127.046875 130.390625 125.949219 C 130.847656 125.398438 131.214844 124.9375 131.488281 124.753906 C 131.765625 124.480469 131.949219 124.296875 131.949219 124.296875 Z M 131.949219 124.296875 " fill-opacity="1" fill-rule="nonzero"/></g></svg>